<svg xmlns="http://www.w3.org/2000/svg" width="163" height="38" viewBox="0 0 163 38"><g data-name="Logo"><path data-name="Path 1429" d="M44.931 25.111H5.067v-.894C5.067 12.892 14.008 3.679 25 3.679s19.931 9.213 19.931 20.538Z" fill="#f29f05"/><path data-name="Path 1430" d="M36.954 19.582a1.49 1.49 0 0 1-1.394-.994 11.36 11.36 0 0 0-10.583-7.54 1.528 1.528 0 0 1 0-3.055 14.35 14.35 0 0 1 13.37 9.527 1.54 1.54 0 0 1-.875 1.966 1.4 1.4 0 0 1-.518.096" fill="#fff"/><path data-name="Path 1431" d="M31.096 38a14.043 14.043 0 0 1-13.837-14.211h2.975a10.865 10.865 0 1 0 21.723 0h2.975A14.043 14.043 0 0 1 31.096 38" fill="#fff"/><path data-name="Path 1432" d="M38.156 24.073a7.064 7.064 0 1 1-14.122 0Z" fill="#fff"/><path data-name="Path 1433" d="M48.517 25.652H1.485a1.528 1.528 0 0 1 0-3.055h47.033a1.528 1.528 0 0 1 0 3.055Z" fill="#f29f05"/><path data-name="Path 1434" d="M25 6.733a1.507 1.507 0 0 1-1.487-1.528V1.527a1.488 1.488 0 1 1 2.975 0v3.678A1.51 1.51 0 0 1 25 6.733" fill="#f29f05"/><path data-name="Path 1435" d="M13.937 31.065H4.46a1.528 1.528 0 0 1 0-3.055h9.474a1.528 1.528 0 0 1 0 3.055Z" fill="#fff"/><path data-name="Path 1436" d="M15.421 36.473h-6.5a1.528 1.528 0 0 1 0-3.055h6.5a1.528 1.528 0 0 1 0 3.055" fill="#fff"/></g><text transform="translate(60 26)" fill="#fff" font-size="20" font-family="Poppins" font-weight="700"><tspan x="0" y="0">QUICK</tspan><tspan y="0" fill="#f29f05">EAT</tspan></text></svg>