<svg xmlns="http://www.w3.org/2000/svg" width="108" height="35" viewBox="0 0 108 35" fill="none"><g clip-path="url(#clip0_15998_558)"><path d="M93.5898 28.1636C93.2943 28.1636 93.0363 28.1085 92.8157 27.9982C92.5952 27.8879 92.4232 27.7225 92.2997 27.502C92.1806 27.2815 92.1211 27.0059 92.1211 26.6751V24.6573H92.5908V26.6222C92.5908 26.9926 92.6812 27.2727 92.862 27.4623C93.0473 27.6476 93.3053 27.7402 93.6361 27.7402C93.8786 27.7402 94.0881 27.6917 94.2645 27.5946C94.4454 27.4932 94.5821 27.3477 94.6747 27.158C94.7717 26.9684 94.8203 26.7412 94.8203 26.4766V24.6573H95.29V28.1305H94.8401V27.1779L94.9129 27.3499C94.8026 27.6057 94.6306 27.8063 94.3969 27.9519C94.1675 28.093 93.8985 28.1636 93.5898 28.1636Z" fill="white"></path><path d="M89.4226 28.1636C89.0874 28.1636 88.7853 28.0886 88.5163 27.9387C88.2517 27.7843 88.0422 27.5748 87.8878 27.3102C87.7334 27.0411 87.6562 26.7346 87.6562 26.3906C87.6562 26.0422 87.7334 25.7357 87.8878 25.471C88.0422 25.2064 88.2517 24.9991 88.5163 24.8492C88.7809 24.6992 89.083 24.6242 89.4226 24.6242C89.7666 24.6242 90.0709 24.6992 90.3356 24.8492C90.6046 24.9991 90.8141 25.2064 90.964 25.471C91.1184 25.7357 91.1956 26.0422 91.1956 26.3906C91.1956 26.7346 91.1184 27.0411 90.964 27.3102C90.8141 27.5748 90.6046 27.7843 90.3356 27.9387C90.0665 28.0886 89.7622 28.1636 89.4226 28.1636ZM89.4226 27.7468C89.674 27.7468 89.8967 27.6917 90.0908 27.5814C90.2848 27.4667 90.437 27.308 90.5473 27.1051C90.6619 26.8978 90.7193 26.6596 90.7193 26.3906C90.7193 26.1172 90.6619 25.879 90.5473 25.6761C90.437 25.4732 90.2848 25.3167 90.0908 25.2064C89.8967 25.0917 89.6762 25.0344 89.4292 25.0344C89.1823 25.0344 88.9617 25.0917 88.7677 25.2064C88.5736 25.3167 88.4193 25.4732 88.3046 25.6761C88.1899 25.879 88.1326 26.1172 88.1326 26.3906C88.1326 26.6596 88.1899 26.8978 88.3046 27.1051C88.4193 27.308 88.5736 27.4667 88.7677 27.5814C88.9617 27.6917 89.18 27.7468 89.4226 27.7468Z" fill="white"></path><path d="M84.5441 29.447C84.3809 29.447 84.2243 29.4205 84.0744 29.3676C83.9288 29.3147 83.8031 29.2353 83.6973 29.1295L83.9156 28.7788C84.0038 28.8626 84.0986 28.9266 84.2001 28.9707C84.3059 29.0192 84.4228 29.0435 84.5507 29.0435C84.705 29.0435 84.8374 28.9994 84.9476 28.9111C85.0623 28.8274 85.1703 28.6774 85.2718 28.4613L85.4967 27.9519L85.5496 27.8791L86.9786 24.6573H87.4417L85.7018 28.5473C85.6048 28.7722 85.4967 28.9508 85.3776 29.0832C85.263 29.2155 85.1373 29.3081 85.0005 29.361C84.8638 29.4183 84.7117 29.447 84.5441 29.447ZM85.4702 28.2297L83.8693 24.6573H84.3588L85.7746 27.846L85.4702 28.2297Z" fill="white"></path><path d="M80.6238 28.1305V24.2207C80.6238 23.912 80.7142 23.6628 80.8951 23.4731C81.0759 23.2835 81.3361 23.1887 81.6757 23.1887C81.808 23.1887 81.9359 23.2063 82.0594 23.2416C82.1829 23.2769 82.2865 23.332 82.3703 23.407L82.2116 23.7576C82.1454 23.7003 82.0682 23.6584 81.98 23.6319C81.8918 23.601 81.797 23.5856 81.6955 23.5856C81.4971 23.5856 81.3449 23.6407 81.2391 23.751C81.1332 23.8612 81.0803 24.0244 81.0803 24.2405V24.7698L81.0935 24.9881V28.1305H80.6238ZM80.002 25.0476V24.6573H82.152V25.0476H80.002Z" fill="white"></path><path d="M77.8123 28.1636C77.4771 28.1636 77.175 28.0886 76.9059 27.9387C76.6413 27.7843 76.4318 27.5748 76.2774 27.3102C76.1231 27.0412 76.0459 26.7346 76.0459 26.3906C76.0459 26.0422 76.1231 25.7357 76.2774 25.471C76.4318 25.2064 76.6413 24.9991 76.9059 24.8492C77.1706 24.6992 77.4727 24.6243 77.8123 24.6243C78.1563 24.6243 78.4606 24.6992 78.7252 24.8492C78.9943 24.9991 79.2037 25.2064 79.3537 25.471C79.5081 25.7357 79.5852 26.0422 79.5852 26.3906C79.5852 26.7346 79.5081 27.0412 79.3537 27.3102C79.2037 27.5748 78.9943 27.7843 78.7252 27.9387C78.4562 28.0886 78.1519 28.1636 77.8123 28.1636ZM77.8123 27.7468C78.0637 27.7468 78.2864 27.6917 78.4804 27.5814C78.6745 27.4668 78.8267 27.308 78.9369 27.1051C79.0516 26.8978 79.1089 26.6597 79.1089 26.3906C79.1089 26.1172 79.0516 25.879 78.9369 25.6761C78.8267 25.4733 78.6745 25.3167 78.4804 25.2064C78.2864 25.0918 78.0659 25.0344 77.8189 25.0344C77.5719 25.0344 77.3514 25.0918 77.1573 25.2064C76.9633 25.3167 76.8089 25.4733 76.6942 25.6761C76.5796 25.879 76.5222 26.1172 76.5222 26.3906C76.5222 26.6597 76.5796 26.8978 76.6942 27.1051C76.8089 27.308 76.9633 27.4668 77.1573 27.5814C77.3514 27.6917 77.5697 27.7468 77.8123 27.7468Z" fill="white"></path><path d="M72.1482 28.1636C71.7865 28.1636 71.469 28.0886 71.1955 27.9387C70.9221 27.7843 70.7082 27.5748 70.5538 27.3102C70.3994 27.0412 70.3223 26.7346 70.3223 26.3906C70.3223 26.0466 70.395 25.7423 70.5406 25.4777C70.6905 25.213 70.8934 25.0058 71.1492 24.8558C71.4094 24.7014 71.7005 24.6243 72.0225 24.6243C72.3488 24.6243 72.6377 24.6992 72.8891 24.8492C73.1449 24.9947 73.3456 25.202 73.4911 25.471C73.6367 25.7357 73.7095 26.0422 73.7095 26.3906C73.7095 26.4127 73.7072 26.4369 73.7028 26.4634C73.7028 26.4854 73.7028 26.5097 73.7028 26.5362H70.6795V26.1855H73.4514L73.2662 26.3245C73.2662 26.0731 73.2111 25.8503 73.1008 25.6563C72.995 25.4578 72.8494 25.3035 72.6642 25.1932C72.479 25.0829 72.265 25.0278 72.0225 25.0278C71.7843 25.0278 71.5704 25.0829 71.3808 25.1932C71.1911 25.3035 71.0434 25.4578 70.9375 25.6563C70.8317 25.8548 70.7787 26.0819 70.7787 26.3377V26.4105C70.7787 26.6751 70.8361 26.9088 70.9507 27.1117C71.0698 27.3102 71.233 27.4668 71.4403 27.5814C71.652 27.6917 71.8924 27.7468 72.1614 27.7468C72.3731 27.7468 72.5694 27.7093 72.7502 27.6344C72.9354 27.5594 73.0942 27.4447 73.2265 27.2903L73.4911 27.5947C73.3368 27.7799 73.1427 27.921 72.909 28.0181C72.6796 28.1151 72.426 28.1636 72.1482 28.1636Z" fill="white"></path><path d="M68.1016 28.1305V24.6573H68.5514V25.6033L68.5051 25.438C68.6021 25.1733 68.7653 24.9727 68.9947 24.8359C69.224 24.6948 69.5085 24.6242 69.8481 24.6242V25.0807C69.8304 25.0807 69.8128 25.0807 69.7952 25.0807C69.7775 25.0763 69.7599 25.0741 69.7422 25.0741C69.3762 25.0741 69.0895 25.1866 68.8822 25.4115C68.6749 25.632 68.5713 25.9474 68.5713 26.3575V28.1305H68.1016Z" fill="white"></path><path d="M66.3758 28.1305V27.3631L66.356 27.2374V25.954C66.356 25.6585 66.2722 25.4314 66.1046 25.2726C65.9414 25.1138 65.6966 25.0344 65.3703 25.0344C65.1453 25.0344 64.9314 25.0719 64.7285 25.1469C64.5257 25.2219 64.3537 25.3211 64.2125 25.4446L64.0008 25.094C64.1772 24.944 64.3889 24.8293 64.6359 24.7499C64.8829 24.6662 65.1431 24.6243 65.4166 24.6243C65.8664 24.6243 66.2126 24.7367 66.4552 24.9616C66.7022 25.1822 66.8257 25.5196 66.8257 25.9738V28.1305H66.3758ZM65.1784 28.1636C64.9182 28.1636 64.691 28.1217 64.497 28.0379C64.3073 27.9497 64.1618 27.8306 64.0604 27.6807C63.9589 27.5263 63.9082 27.3499 63.9082 27.1514C63.9082 26.9706 63.9501 26.8074 64.0339 26.6619C64.1221 26.5119 64.2632 26.3928 64.4573 26.3046C64.6558 26.212 64.9204 26.1657 65.2512 26.1657H66.4486V26.5163H65.2644C64.9292 26.5163 64.6955 26.5759 64.5631 26.6949C64.4352 26.814 64.3713 26.9618 64.3713 27.1382C64.3713 27.3366 64.4485 27.4954 64.6028 27.6145C64.7572 27.7336 64.9733 27.7931 65.2512 27.7931C65.5158 27.7931 65.7429 27.7336 65.9326 27.6145C66.1266 27.491 66.2678 27.3146 66.356 27.0853L66.4618 27.4094C66.3736 27.6388 66.2193 27.8218 65.9987 27.9585C65.7826 28.0952 65.5092 28.1636 65.1784 28.1636Z" fill="white"></path><path d="M61.9139 28.1636C61.5699 28.1636 61.2612 28.0886 60.9877 27.9387C60.7187 27.7843 60.507 27.5748 60.3526 27.3102C60.1983 27.0412 60.1211 26.7346 60.1211 26.3906C60.1211 26.0422 60.1983 25.7357 60.3526 25.471C60.507 25.2064 60.7187 24.9991 60.9877 24.8492C61.2612 24.6992 61.5699 24.6243 61.9139 24.6243C62.2094 24.6243 62.4762 24.6816 62.7144 24.7963C62.9526 24.9109 63.14 25.0829 63.2767 25.3123L62.9261 25.5504C62.807 25.374 62.6593 25.2439 62.4829 25.1601C62.3064 25.0763 62.1146 25.0344 61.9073 25.0344C61.6603 25.0344 61.4376 25.0918 61.2391 25.2064C61.0407 25.3167 60.8841 25.4733 60.7694 25.6761C60.6548 25.879 60.5974 26.1172 60.5974 26.3906C60.5974 26.6641 60.6548 26.9022 60.7694 27.1051C60.8841 27.308 61.0407 27.4668 61.2391 27.5814C61.4376 27.6917 61.6603 27.7468 61.9073 27.7468C62.1146 27.7468 62.3064 27.7049 62.4829 27.6211C62.6593 27.5373 62.807 27.4094 62.9261 27.2374L63.2767 27.4756C63.14 27.7005 62.9526 27.8725 62.7144 27.9916C62.4762 28.1063 62.2094 28.1636 61.9139 28.1636Z" fill="white"></path><path d="M56.2224 28.1636C55.8607 28.1636 55.5432 28.0886 55.2697 27.9387C54.9963 27.7843 54.7824 27.5748 54.628 27.3102C54.4737 27.0412 54.3965 26.7346 54.3965 26.3906C54.3965 26.0466 54.4693 25.7423 54.6148 25.4777C54.7648 25.213 54.9676 25.0058 55.2234 24.8558C55.4836 24.7014 55.7747 24.6243 56.0967 24.6243C56.4231 24.6243 56.7119 24.6992 56.9633 24.8492C57.2191 24.9947 57.4198 25.202 57.5654 25.471C57.7109 25.7357 57.7837 26.0422 57.7837 26.3906C57.7837 26.4127 57.7815 26.4369 57.7771 26.4634C57.7771 26.4854 57.7771 26.5097 57.7771 26.5362H54.7537V26.1855H57.5257L57.3404 26.3245C57.3404 26.0731 57.2853 25.8503 57.175 25.6563C57.0692 25.4578 56.9236 25.3035 56.7384 25.1932C56.5532 25.0829 56.3393 25.0278 56.0967 25.0278C55.8585 25.0278 55.6446 25.0829 55.455 25.1932C55.2653 25.3035 55.1176 25.4578 55.0117 25.6563C54.9059 25.8548 54.853 26.0819 54.853 26.3377V26.4105C54.853 26.6751 54.9103 26.9088 55.025 27.1117C55.144 27.3102 55.3072 27.4668 55.5145 27.5814C55.7262 27.6917 55.9666 27.7468 56.2356 27.7468C56.4473 27.7468 56.6436 27.7093 56.8244 27.6344C57.0096 27.5594 57.1684 27.4447 57.3007 27.2903L57.5654 27.5947C57.411 27.7799 57.2169 27.921 56.9832 28.0181C56.7538 28.1151 56.5002 28.1636 56.2224 28.1636Z" fill="white"></path><path d="M51.2865 27.2308L51.2997 26.6288L53.463 24.6573H54.0386L52.5104 26.1194L52.2458 26.3443L51.2865 27.2308ZM50.916 28.1305V23.2217H51.3857V28.1305H50.916ZM53.6086 28.1305L52.1597 26.3245L52.4641 25.9606L54.1841 28.1305H53.6086Z" fill="white"></path><path d="M49.1913 28.1305V27.3631L49.1714 27.2374V25.954C49.1714 25.6585 49.0876 25.4313 48.92 25.2726C48.7568 25.1138 48.5121 25.0344 48.1857 25.0344C47.9608 25.0344 47.7468 25.0719 47.544 25.1469C47.3411 25.2218 47.1691 25.3211 47.028 25.4446L46.8163 25.0939C46.9927 24.944 47.2044 24.8293 47.4513 24.7499C47.6983 24.6661 47.9585 24.6242 48.232 24.6242C48.6819 24.6242 49.0281 24.7367 49.2706 24.9616C49.5176 25.1822 49.6411 25.5195 49.6411 25.9738V28.1305H49.1913ZM47.9938 28.1636C47.7336 28.1636 47.5065 28.1217 47.3124 28.0379C47.1228 27.9497 46.9772 27.8306 46.8758 27.6806C46.7744 27.5263 46.7236 27.3499 46.7236 27.1514C46.7236 26.9706 46.7655 26.8074 46.8493 26.6618C46.9375 26.5119 47.0787 26.3928 47.2727 26.3046C47.4712 26.212 47.7358 26.1657 48.0666 26.1657H49.264V26.5163H48.0798C47.7446 26.5163 47.5109 26.5758 47.3786 26.6949C47.2507 26.814 47.1867 26.9617 47.1867 27.1382C47.1867 27.3366 47.2639 27.4954 47.4183 27.6145C47.5726 27.7336 47.7887 27.7931 48.0666 27.7931C48.3312 27.7931 48.5584 27.7336 48.748 27.6145C48.9421 27.491 49.0832 27.3146 49.1714 27.0852L49.2773 27.4094C49.189 27.6387 49.0347 27.8218 48.8142 27.9585C48.5981 28.0952 48.3246 28.1636 47.9938 28.1636Z" fill="white"></path><path d="M45.4248 28.1636C45.0985 28.1636 44.8471 28.0754 44.6707 27.899C44.4943 27.7225 44.406 27.4734 44.406 27.1514V23.8899H44.8758V27.1249C44.8758 27.3278 44.9265 27.4844 45.0279 27.5946C45.1338 27.7049 45.2837 27.76 45.4778 27.76C45.6851 27.76 45.8571 27.7005 45.9938 27.5814L46.1592 27.9188C46.0666 28.0026 45.9541 28.0644 45.8218 28.104C45.6939 28.1437 45.5616 28.1636 45.4248 28.1636ZM43.7842 25.0476V24.6573H45.9342V25.0476H43.7842Z" fill="white"></path><path d="M40.0779 28.1636C39.7162 28.1636 39.3987 28.0886 39.1252 27.9387C38.8518 27.7843 38.6379 27.5748 38.4835 27.3102C38.3291 27.0412 38.252 26.7346 38.252 26.3906C38.252 26.0466 38.3247 25.7423 38.4703 25.4777C38.6202 25.213 38.8231 25.0058 39.0789 24.8558C39.3391 24.7014 39.6302 24.6243 39.9522 24.6243C40.2785 24.6243 40.5674 24.6992 40.8188 24.8492C41.0746 24.9947 41.2753 25.202 41.4208 25.471C41.5664 25.7357 41.6391 26.0422 41.6391 26.3906C41.6391 26.4127 41.6369 26.4369 41.6325 26.4634C41.6325 26.4854 41.6325 26.5097 41.6325 26.5362H38.6092V26.1855H41.3811L41.1959 26.3245C41.1959 26.0731 41.1408 25.8503 41.0305 25.6563C40.9247 25.4578 40.7791 25.3035 40.5939 25.1932C40.4086 25.0829 40.1947 25.0278 39.9522 25.0278C39.714 25.0278 39.5001 25.0829 39.3104 25.1932C39.1208 25.3035 38.9731 25.4578 38.8672 25.6563C38.7614 25.8548 38.7084 26.0819 38.7084 26.3377V26.4105C38.7084 26.6751 38.7658 26.9088 38.8804 27.1117C38.9995 27.3102 39.1627 27.4668 39.37 27.5814C39.5817 27.6917 39.8221 27.7468 40.0911 27.7468C40.3028 27.7468 40.4991 27.7093 40.6799 27.6344C40.8651 27.5594 41.0239 27.4447 41.1562 27.2903L41.4208 27.5947C41.2665 27.7799 41.0724 27.921 40.8387 28.0181C40.6093 28.1151 40.3557 28.1636 40.0779 28.1636Z" fill="white"></path><path d="M32.7634 28.1305L31.2021 23.4996H31.7049L33.167 27.8593H32.9156L34.4239 23.4996H34.8738L36.3623 27.8593H36.1242L37.5994 23.4996H38.0691L36.5079 28.1305H35.9918L34.5695 23.9958H34.7018L33.2728 28.1305H32.7634Z" fill="white"></path><path d="M92.907 14.3486C92.3341 15.5793 92.3128 16.4493 93.0343 16.4068C93.9042 16.3644 95.05 14.9428 95.7927 13.4787C95.8988 13.2877 96.0473 13.2877 96.1322 13.4575C96.2171 13.6484 96.2383 14.2001 95.9624 14.773C95.3895 15.94 94.074 17.0646 92.907 17.001C91.7611 16.9373 91.1882 16.3008 91.1882 15.3035C90.5092 16.1522 89.5544 16.9373 88.5571 16.9373C86.5838 16.9373 86.2019 14.2425 87.9418 11.6963C89.6181 9.23494 91.3156 8.2801 92.3765 8.2801C93.2464 8.2801 93.6708 8.93788 93.6496 9.72297C94.7954 7.53745 96.408 4.65171 97.1719 3.56956C97.3841 3.2725 97.5751 3.29372 97.6812 3.56956C97.9782 4.26977 97.9146 5.18218 97.0234 6.77358C96.0049 8.59838 93.9679 12.0995 92.907 14.3486ZM92.716 9.36225C92.0582 9.34103 90.5092 10.6778 89.3422 12.5451C88.1964 14.3699 87.963 16.2159 88.7905 16.2371C89.6393 16.2583 90.7851 15.0064 91.7824 13.0755C93.013 10.7202 93.3313 9.38347 92.716 9.36225Z" fill="white"></path><path d="M87.0422 12.0782C86.9148 12.2268 86.7027 12.3116 86.448 12.3329C86.0024 14.1365 84.6869 16.2795 83.1379 16.7888C82.3741 17.0434 81.2919 17.001 80.4644 15.8976C79.7005 14.8791 79.7642 13.4575 80.3371 12.0358C79.9339 12.2268 79.4883 12.3116 79.0215 12.3116C78.5759 14.1365 77.2604 16.2795 75.6902 16.7888C74.9263 17.0434 73.8866 17.001 73.0378 15.8976C72.083 14.6457 72.4225 12.7785 73.3561 11.1234C74.1837 9.68053 75.478 8.47107 76.7511 8.36497C77.3877 8.30132 77.7484 8.47107 78.1728 9.06519C78.6608 9.74419 79.2974 9.8715 79.1913 11.3992C79.1913 11.5053 79.17 11.6114 79.17 11.7175C80.0188 11.5902 80.8251 10.89 81.4617 10.1049C82.2467 9.12885 83.2016 8.42863 84.1776 8.36497C84.8142 8.32254 85.1749 8.49229 85.5993 9.06519C86.1085 9.74419 86.7239 9.8715 86.6178 11.3992C86.5966 11.569 86.5966 11.7175 86.5541 11.8873C86.7027 11.8873 86.83 11.8873 86.9573 11.8661C87.1483 11.8236 87.1483 11.9721 87.0422 12.0782ZM77.9394 9.91394C77.8545 9.23494 77.3877 9.36225 77.3028 9.99881C77.2179 10.5929 77.3877 11.1446 77.812 11.4629C77.9606 10.8263 77.9818 10.2959 77.9394 9.91394ZM85.2386 11.4841C85.3871 10.8263 85.4083 10.2959 85.3659 9.91394C85.281 9.23494 84.8566 9.36225 84.7505 9.97759C84.6445 10.5505 84.8991 11.1658 85.2386 11.4841ZM85.0688 12.0358C84.9203 11.9934 84.793 11.9085 84.6869 11.8024C84.1989 11.4629 83.6896 10.7202 83.6896 9.95637C83.1167 10.402 82.5226 11.1234 82.0558 11.9297C81.1434 13.5211 80.8888 15.4944 81.4192 15.9613C81.9709 16.4493 83.2652 15.6854 84.305 13.7757C84.6445 13.1604 84.8991 12.5663 85.0688 12.0358ZM76.2631 9.95637C75.6902 10.402 75.0961 11.1234 74.6292 11.9297C73.7168 13.5211 73.3986 15.4944 73.9927 15.9613C74.5656 16.4068 75.8387 15.6854 76.8784 13.7757C77.2179 13.1392 77.4938 12.5451 77.6423 12.0146C76.9633 11.6539 76.2631 10.8476 76.2631 9.95637Z" fill="white"></path><path d="M70.0412 5.47924C69.5532 5.24584 69.3198 4.82146 69.2137 4.39709C69.1713 4.22734 69.2349 4.14247 69.4471 4.14247C71.2082 4.22734 73.4574 3.612 74.6457 3.612C75.5581 3.612 76.1098 4.03637 76.3856 4.69415C76.4493 4.8639 76.4068 5.01243 76.131 5.01243C74.5396 4.99121 73.0543 5.41559 71.7599 5.60655C71.0173 6.81602 70.02 8.53473 68.9803 10.4444C69.532 10.3383 70.02 10.2959 70.4019 10.2747C71.4629 10.211 71.9933 10.6566 72.1843 11.2932C72.248 11.4841 72.2055 11.6114 71.9509 11.6114C70.89 11.5902 69.2561 11.9085 68.0467 12.2056C67.2404 13.7757 66.4553 15.3671 65.8399 16.7888C65.755 17.001 65.6277 17.001 65.4792 16.8737C65.076 16.5342 64.8639 15.8552 65.3095 14.5396C65.946 12.6724 68.174 8.51351 70.0412 5.47924Z" fill="white"></path><path d="M65.968 14.7094C65.3739 15.9188 64.0796 16.9798 62.8277 16.9798C61.0453 16.9798 60.5997 15.6854 61.2363 13.8394C61.9365 11.7812 63.7825 9.57444 63.443 9.38347C63.146 9.21373 60.8331 10.6566 59.6024 12.6724C58.8386 13.9243 58.0535 15.4096 57.5442 16.7039C57.4594 16.8949 57.3108 16.9373 57.1835 16.7888C56.844 16.4069 56.6531 15.8127 57.0986 14.5396C57.8413 12.4177 62.2548 4.94878 63.9735 2.80569C64.1645 2.55107 64.3766 2.57228 64.4827 2.82691C64.7586 3.44225 64.6949 4.50318 63.8886 5.83996C63.3794 6.68871 62.2548 8.40742 61.3424 9.82907C62.2123 8.98032 63.3157 8.2801 63.8886 8.34376C64.61 8.42863 65.2678 9.48957 64.7161 10.5717C64.2493 11.5053 63.2308 13.0543 62.7428 14.1577C62.2123 15.3884 62.3184 16.3856 63.1035 16.3432C63.9735 16.3008 65.1405 14.773 65.7983 13.415C65.8832 13.2241 66.0954 13.2241 66.1802 13.3938C66.2863 13.6272 66.2863 14.0728 65.968 14.7094Z" fill="white"></path><path d="M51.9263 13.1604C52.7963 11.9722 53.7511 10.5929 54.3665 9.51078C54.4726 8.68326 54.6848 8.2801 55.1304 7.87695C55.5972 7.45257 56.0852 7.3677 56.2762 7.55867C56.4884 7.77086 56.3823 8.00426 56.1064 8.49229C56.0215 8.6196 55.9579 8.74691 55.873 8.89544C55.7245 10.8476 56.1276 12.5026 56.064 13.9667C56.0215 14.7942 55.873 15.6854 55.1091 16.1947C56.5308 15.6642 57.422 14.3911 57.9524 13.2453C58.0585 13.0119 58.2707 13.0755 58.3556 13.2453C58.4405 13.4362 58.4193 13.9879 58.0585 14.6457C57.2522 16.1098 55.8094 16.9161 54.3028 16.9798C53.0722 17.0222 51.8839 16.7039 51.1625 15.3884C50.6532 14.4335 50.7169 13.0331 51.4383 12.439C51.6929 12.2268 51.8627 12.3116 51.8839 12.6511C51.9051 12.8209 51.9051 12.9906 51.9263 13.1604ZM54.3241 10.8688C53.7087 11.9934 52.9236 13.1604 52.1173 14.3062C52.4356 15.5369 53.0509 16.4069 53.7511 16.1947C54.7272 15.8976 54.4089 12.5663 54.3241 10.8688Z" fill="white"></path><path d="M46.3571 13.0119C45.6781 14.964 46.1874 16.3008 47.312 16.3644C49.0731 16.4493 50.6221 14.7518 51.5345 13.3514C51.6406 13.1816 51.8103 13.1816 51.8952 13.3726C51.9801 13.5423 51.9164 14.1365 51.5345 14.6881C50.6433 15.9825 49.0095 16.9585 47.3756 16.9798C44.6809 17.0222 43.7472 14.3699 45.1265 11.6327C46.5057 8.89545 48.67 7.79208 49.7309 8.40742C50.2614 8.7257 50.6433 9.04398 50.9828 9.51079C51.3647 10.02 51.195 11.3144 50.3038 12.3965C49.2641 13.6696 47.8424 14.2213 46.3571 13.0119ZM46.5481 12.5451C47.5878 13.2028 48.4578 12.2904 49.0731 11.4841C49.7521 10.5929 50.2189 9.48957 49.9219 9.25617C49.4763 8.89545 47.7151 10.1686 46.7179 12.1843C46.6542 12.3117 46.5905 12.439 46.5481 12.5451Z" fill="white"></path><path d="M40.9028 9.93515C41.5818 9.85028 42.3032 9.51078 43.0883 8.95909C43.3429 8.78934 43.5127 8.74691 43.6612 8.91666C44.0644 9.36225 44.5736 10.2959 43.9583 10.9961C43.0034 12.0782 41.9637 13.415 41.6242 14.5184C41.2847 15.6218 41.5394 16.4493 42.1547 16.4705C42.9822 16.5129 44.0007 15.1974 44.6797 13.6696C44.7646 13.4999 44.8919 13.4787 44.9768 13.6484C45.0829 13.8818 45.1041 14.3911 44.8707 14.964C44.3827 16.1947 43.152 17.0858 42.0274 17.0434C40.4996 16.9797 39.8843 15.5793 40.4148 13.9879C40.8816 12.5875 42.1123 11.081 42.961 10.1049C42.0274 10.7202 41.115 10.9112 40.4784 10.9112C39.6721 12.3965 37.6351 15.4096 37.232 17.3405C37.1895 17.5314 37.0622 17.6375 36.8712 17.4466C36.2559 16.81 36.2559 15.8339 36.8288 14.7518C37.3168 13.8182 38.7385 11.8236 39.5236 10.699C38.3141 9.91393 40.1601 7.41013 40.9452 7.38891C41.603 7.36769 41.4333 8.59838 40.9028 9.93515Z" fill="white"></path><path d="M35.4982 5.47924C35.0102 5.24584 34.7768 4.82146 34.6707 4.39709C34.6283 4.22734 34.6919 4.14247 34.9041 4.14247C36.6653 4.22734 38.9145 3.612 40.1027 3.612C41.0151 3.612 41.5668 4.03637 41.8426 4.69415C41.9063 4.8639 41.8638 5.01243 41.588 5.01243C39.9966 4.99121 38.5113 5.41559 37.217 5.60655C36.4743 6.81602 35.477 8.53473 34.4373 10.4444C34.989 10.3383 35.477 10.2959 35.859 10.2747C36.9199 10.211 37.4504 10.6566 37.6413 11.2932C37.705 11.4841 37.6625 11.6114 37.4079 11.6114C36.347 11.5902 34.7132 11.9085 33.5037 12.2056C32.6974 13.7757 31.9123 15.3671 31.297 16.7888C31.2121 17.001 31.0848 17.001 30.9362 16.8737C30.5331 16.5342 30.3209 15.8552 30.7665 14.5396C31.403 12.6724 33.631 8.51351 35.4982 5.47924Z" fill="white"></path><path d="M20.5175 25.3848C20.4186 25.5215 20.2773 25.6217 20.1157 25.6701C19.954 25.7184 19.7809 25.7121 19.6232 25.6522C19.4654 25.5922 19.3319 25.482 19.2431 25.3385C19.1543 25.195 19.1153 25.0262 19.1321 24.8583C19.3038 23.0676 19.1154 21.2607 18.5779 19.5439C18.5392 19.4275 18.5031 19.3195 18.4699 19.228C19.1709 17.8759 18.9381 15.2768 18.3868 14.0604C18.223 13.6991 17.9897 13.3736 17.7002 13.1024C17.4106 12.8313 17.0705 12.6198 16.6992 12.4801C16.3279 12.3404 15.9328 12.2752 15.5363 12.2882C15.1398 12.3012 14.7498 12.3921 14.3885 12.5559C14.0271 12.7196 13.7016 12.9529 13.4304 13.2425C13.1593 13.532 12.9478 13.8721 12.8081 14.2434C12.6684 14.6147 12.6032 15.0099 12.6162 15.4063C12.6292 15.8028 12.7202 16.1929 12.8839 16.5542C13.463 17.8315 15.4331 19.8598 16.9459 20.0676C17.4141 23.0469 16.7197 26.0922 15.0064 28.574C14.7553 28.9439 14.3949 29.226 13.9756 29.381C13.5563 29.536 13.0991 29.5561 12.6678 29.4385L12.3907 29.3609C11.9629 29.2418 11.5107 29.2418 11.0829 29.3609C10.3541 29.5604 9.65312 29.8375 7.73848 29.2584C4.74876 28.3523 -0.953596 22.3203 0.135338 15.202C0.811419 10.7881 2.87845 8.82912 4.81526 8.34422C5.00638 8.29771 5.20687 8.30731 5.39267 8.37188C5.57847 8.43645 5.7417 8.55325 5.86278 8.70826C5.98387 8.86328 6.05767 9.04993 6.07534 9.24583C6.093 9.44174 6.05378 9.63858 5.96238 9.81276C3.74572 14.0798 4.3747 17.8481 4.60468 18.8567L4.52986 18.8872C4.27828 18.973 4.07101 19.1551 3.9536 19.3935C3.83618 19.632 3.81822 19.9073 3.90366 20.159L5.51905 24.2959C5.53315 24.331 5.55432 24.363 5.58126 24.3896C5.60819 24.4163 5.64031 24.4372 5.67564 24.451C5.71096 24.4647 5.74873 24.4711 5.78661 24.4697C5.8245 24.4683 5.86169 24.4591 5.89588 24.4427L5.9319 24.4261C5.98716 24.4089 6.03838 24.3807 6.08247 24.3433C6.12657 24.3058 6.16264 24.2598 6.18852 24.208C6.2144 24.1563 6.22955 24.0998 6.23307 24.0421C6.23659 23.9843 6.22839 23.9264 6.20898 23.8719L5.1533 21.1759C5.12465 21.0913 5.12981 20.9989 5.16768 20.918C5.20556 20.8371 5.27323 20.7739 5.35656 20.7418C5.43989 20.7096 5.53244 20.7108 5.61487 20.7453C5.6973 20.7797 5.76323 20.8446 5.7989 20.9265L6.84904 23.6419C6.90861 23.758 7.00917 23.8479 7.13122 23.894C7.25327 23.9402 7.38811 23.9394 7.5096 23.8917C7.63108 23.8441 7.73055 23.7531 7.78871 23.6363C7.84687 23.5195 7.85958 23.3852 7.82437 23.2596L6.76869 20.558C6.74047 20.4753 6.74621 20.3848 6.78466 20.3064C6.8231 20.228 6.8911 20.168 6.97373 20.1396C7.05462 20.1041 7.14628 20.1019 7.22878 20.1335C7.31128 20.1652 7.37795 20.2281 7.41429 20.3086L8.46443 23.0019C8.51161 23.1061 8.59818 23.1874 8.70517 23.2279C8.81216 23.2684 8.93085 23.2649 9.03522 23.218H9.06847C9.10498 23.2069 9.13879 23.1883 9.16779 23.1635C9.19679 23.1387 9.22035 23.1082 9.237 23.0739C9.25365 23.0395 9.26302 23.0021 9.26454 22.964C9.26606 22.9258 9.25968 22.8878 9.24581 22.8523L7.63042 18.7043C7.52243 18.461 7.32238 18.2704 7.07412 18.1743C6.82585 18.0783 6.54962 18.0845 6.30596 18.1917L6.18959 18.2388C6.12761 15.6434 6.933 13.1015 8.47829 11.0153C8.70662 10.7017 9.02555 10.4656 9.39215 10.3388C9.75875 10.212 10.1554 10.2005 10.5287 10.306C10.9195 10.4282 11.3229 10.5054 11.7312 10.5359H11.7673C13.1939 10.3902 14.5446 9.82191 15.6464 8.90393C17.586 7.34118 22.2964 8.08653 23.3825 15.202C23.9838 19.1671 22.4848 22.7913 20.5175 25.3848Z" fill="white"></path><path d="M15.6297 1.75243C14.8432 1.72603 14.0645 1.91526 13.3778 2.29962C12.6911 2.68399 12.1226 3.24885 11.7339 3.93307C10.5064 5.9336 11.8004 8.39132 11.8004 8.39132C11.8004 8.39132 14.5712 8.28049 15.6962 6.219C16.0938 5.53932 16.2978 4.76378 16.286 3.97644C16.2743 3.18909 16.0473 2.41997 15.6297 1.75243Z" fill="white"></path><path d="M14.5219 13.1849C13.5659 13.739 13.0727 14.6534 13.4135 15.9086C13.3055 14.4871 15.9073 12.7581 17.1597 13.4425C16.6388 13.0435 15.6579 12.5282 14.5219 13.1849Z" fill="white"></path></g><defs><clipPath id="clip0_15998_558"><rect width="107.27" height="35" fill="white"></rect></clipPath></defs></svg>