<svg xmlns="http://www.w3.org/2000/svg" width="88" height="35" viewBox="0 0 88 35" fill="none"><g clip-path="url(#clip0_15998_596)"><path d="M80.7269 17.103V22.0376H77.4852V17.157L72.9648 9.79118H76.3686L79.106 14.7978L81.8795 9.79118H85.2473L80.7269 17.103Z" fill="white"></path><path d="M68.2708 22.2537C66.782 22.2537 65.5213 21.9655 64.4888 21.3892C63.4562 20.8009 62.6818 20.0265 62.1656 19.066C61.6613 18.0935 61.4092 17.037 61.4092 15.8964C61.4092 14.7678 61.6733 13.7232 62.2016 12.7627C62.7419 11.8022 63.5403 11.0338 64.5968 10.4575C65.6534 9.88123 66.9261 9.59308 68.4148 9.59308C69.8076 9.59308 71.0322 9.86322 72.0888 10.4035L71.4404 12.6727C70.9962 12.4446 70.5339 12.2645 70.0537 12.1324C69.5734 11.9883 69.0272 11.9163 68.4148 11.9163C67.6344 11.9163 66.9561 12.0964 66.3798 12.4566C65.8155 12.8048 65.3833 13.285 65.0831 13.8973C64.7949 14.4976 64.6509 15.17 64.6509 15.9144C64.6509 17.091 64.963 18.0575 65.5874 18.8139C66.2117 19.5583 67.1062 19.9305 68.2708 19.9305C69.2673 19.9305 70.3418 19.6843 71.4944 19.1921L72.1068 21.4072C71.6145 21.6594 71.0262 21.8635 70.3418 22.0196C69.6575 22.1756 68.9671 22.2537 68.2708 22.2537Z" fill="white"></path><path d="M55.7295 9.79118H58.9712V22.0376H55.7295V9.79118Z" fill="white"></path><path d="M48.5328 9.79118C50.2857 9.79118 51.5643 10.1154 52.3688 10.7637C53.1732 11.412 53.5754 12.4386 53.5754 13.8433C53.5754 15.248 53.1732 16.2746 52.3688 16.9229C51.5643 17.5712 50.2857 17.8954 48.5328 17.8954H46.6958V22.0376H43.4541V9.79118H48.5328ZM48.5328 15.6442C49.1811 15.6322 49.6433 15.4882 49.9195 15.212C50.1956 14.9239 50.3337 14.4676 50.3337 13.8433C50.3337 13.207 50.1956 12.7507 49.9195 12.4746C49.6433 12.1864 49.1811 12.0424 48.5328 12.0424H46.6958V15.6442H48.5328Z" fill="white"></path><path d="M35.6873 22.2537C34.8949 22.2537 34.1265 22.1816 33.3821 22.0376C32.6377 21.8815 31.9954 21.6714 31.4551 21.4072L32.0674 19.1921C32.7397 19.4442 33.3581 19.6303 33.9224 19.7504C34.4867 19.8704 35.063 19.9305 35.6513 19.9305C36.2996 19.9305 36.8399 19.8284 37.2721 19.6243C37.7163 19.4082 37.9385 19.09 37.9385 18.6698C37.9385 18.3937 37.8364 18.1535 37.6323 17.9494C37.4282 17.7453 37.1701 17.5712 36.8579 17.4272C36.5457 17.2831 36.1075 17.109 35.5432 16.9049C34.7628 16.6167 34.1205 16.3466 33.6162 16.0945C33.1239 15.8423 32.6977 15.4942 32.3375 15.0499C31.9894 14.6057 31.8153 14.0534 31.8153 13.3931C31.8153 12.2044 32.2775 11.274 33.202 10.6016C34.1265 9.92925 35.3811 9.59308 36.966 9.59308C37.5903 9.59308 38.2206 9.66512 38.8569 9.80919C39.5053 9.95327 40.0756 10.1514 40.5678 10.4035L39.9375 12.6006C39.4092 12.3725 38.917 12.2044 38.4607 12.0964C38.0045 11.9763 37.5423 11.9163 37.074 11.9163C36.4497 11.9163 35.9454 12.0304 35.5612 12.2585C35.177 12.4746 34.9849 12.7807 34.9849 13.1769C34.9849 13.5131 35.165 13.7893 35.5252 14.0054C35.8854 14.2215 36.4557 14.4736 37.2361 14.7618C38.0285 15.0619 38.6828 15.3501 39.1991 15.6262C39.7274 15.8904 40.1776 16.2566 40.5498 16.7248C40.922 17.193 41.1081 17.7693 41.1081 18.4537C41.1081 19.6543 40.6459 20.5908 39.7214 21.2632C38.7969 21.9235 37.4522 22.2537 35.6873 22.2537Z" fill="white"></path><path d="M49.0468 27.8866C49.583 27.8866 50.0382 27.9978 50.4125 28.2204C50.7918 28.4429 51.075 28.7489 51.2622 29.1384C51.4544 29.5278 51.5505 29.9679 51.5505 30.4585C51.5505 30.9642 51.4544 31.4119 51.2622 31.8013C51.075 32.1908 50.7918 32.4968 50.4125 32.7193C50.0382 32.9368 49.583 33.0455 49.0468 33.0455H47.2412V27.8866H49.0468ZM49.0468 32.5145C49.6234 32.5145 50.0685 32.3298 50.3821 31.9606C50.6957 31.5914 50.8525 31.0932 50.8525 30.466C50.8525 29.8439 50.6932 29.3483 50.3745 28.9791C50.0609 28.6048 49.6184 28.4176 49.0468 28.4176H47.9392V32.5145H49.0468Z" fill="white"></path><path d="M43.4522 33.1669C42.916 33.1669 42.4558 33.048 42.0714 32.8103C41.692 32.5676 41.4063 32.2413 41.2141 31.8316C41.0219 31.422 40.9258 30.9693 40.9258 30.4736C40.9258 29.978 41.0219 29.5278 41.2141 29.1232C41.4063 28.7135 41.692 28.3898 42.0714 28.1521C42.4558 27.9093 42.916 27.7879 43.4522 27.7879C43.9883 27.7879 44.446 27.9093 44.8253 28.1521C45.2097 28.3898 45.498 28.7135 45.6902 29.1232C45.8824 29.5278 45.9785 29.9754 45.9785 30.466C45.9785 30.9668 45.8824 31.422 45.6902 31.8316C45.498 32.2413 45.2097 32.5676 44.8253 32.8103C44.446 33.048 43.9883 33.1669 43.4522 33.1669ZM43.4522 32.6207C43.8365 32.6207 44.1653 32.5296 44.4384 32.3475C44.7115 32.1604 44.9189 31.905 45.0605 31.5813C45.2022 31.2525 45.273 30.8833 45.273 30.4736C45.273 30.0639 45.2022 29.6973 45.0605 29.3736C44.9189 29.0499 44.709 28.7944 44.4308 28.6073C44.1577 28.4202 43.8315 28.3266 43.4522 28.3266C43.0678 28.3266 42.7365 28.4202 42.4583 28.6073C42.1852 28.7944 41.9778 29.0499 41.8362 29.3736C41.6946 29.6973 41.6238 30.0639 41.6238 30.4736C41.6238 30.8833 41.6946 31.2525 41.8362 31.5813C41.9778 31.905 42.1852 32.1604 42.4583 32.3475C42.7365 32.5296 43.0678 32.6207 43.4522 32.6207Z" fill="white"></path><path d="M37.5547 33.1669C37.0186 33.1669 36.5583 33.048 36.1739 32.8103C35.7946 32.5676 35.5088 32.2413 35.3166 31.8316C35.1244 31.422 35.0283 30.9693 35.0283 30.4736C35.0283 29.978 35.1244 29.5278 35.3166 29.1232C35.5088 28.7135 35.7946 28.3898 36.1739 28.1521C36.5583 27.9093 37.0186 27.7879 37.5547 27.7879C38.0908 27.7879 38.5486 27.9093 38.9279 28.1521C39.3123 28.3898 39.6006 28.7135 39.7928 29.1232C39.985 29.5278 40.0811 29.9754 40.0811 30.466C40.0811 30.9668 39.985 31.422 39.7928 31.8316C39.6006 32.2413 39.3123 32.5676 38.9279 32.8103C38.5486 33.048 38.0908 33.1669 37.5547 33.1669ZM37.5547 32.6207C37.9391 32.6207 38.2678 32.5296 38.541 32.3475C38.8141 32.1604 39.0215 31.905 39.1631 31.5813C39.3047 31.2525 39.3755 30.8833 39.3755 30.4736C39.3755 30.0639 39.3047 29.6973 39.1631 29.3736C39.0215 29.0499 38.8116 28.7944 38.5334 28.6073C38.2603 28.4202 37.934 28.3266 37.5547 28.3266C37.1703 28.3266 36.839 28.4202 36.5608 28.6073C36.2877 28.7944 36.0803 29.0499 35.9387 29.3736C35.7971 29.6973 35.7263 30.0639 35.7263 30.4736C35.7263 30.8833 35.7971 31.2525 35.9387 31.5813C36.0803 31.905 36.2877 32.1604 36.5608 32.3475C36.839 32.5296 37.1703 32.6207 37.5547 32.6207Z" fill="white"></path><path d="M32.0837 28.4176V30.1929H34.0942V30.724H32.0837V33.0455H31.3857V27.8866H34.3977V28.4176H32.0837Z" fill="white"></path><path d="M17.0807 2.16763C14.8661 4.35694 18.3957 4.97471 17.2505 7.0737C20.3358 4.92775 17.395 3.89812 17.0807 2.16763Z" fill="white"></path><path d="M26.0223 26.0116C25.1638 27.8483 23.8133 29.4114 22.1206 30.5275C16.8893 34.104 8.00206 32.9371 4.01362 25.5564C3.28398 24.1838 2.7536 22.7143 2.43848 21.1922C2.69569 20.9072 2.90549 20.5827 3.05986 20.2312C3.41238 20.6769 3.67385 21.1875 3.82937 21.7341C3.85669 21.8319 3.90606 21.9222 3.9737 21.998C4.04133 22.0738 4.12544 22.133 4.21955 22.1712C4.30057 22.2011 4.38609 22.217 4.47244 22.2182C4.5894 22.2191 4.70436 22.1878 4.80481 22.1279C5.23954 21.8743 5.61543 21.5313 5.90754 21.1214C6.19965 20.7116 6.40131 20.2444 6.49917 19.7507C7.22753 20.3873 8.1347 20.7835 9.09671 20.8851H9.16174C9.26495 20.8849 9.36672 20.8609 9.45916 20.8149C9.55159 20.769 9.63221 20.7024 9.69475 20.6203C9.75729 20.5382 9.80007 20.4428 9.81979 20.3415C9.8395 20.2402 9.83561 20.1357 9.80842 20.0361C9.68195 19.5635 9.60328 19.0794 9.57359 18.591C10.0165 18.7724 10.4895 18.8692 10.9681 18.8764C11.1254 18.8772 11.2824 18.8651 11.4378 18.8403C11.8132 19.9777 12.5147 20.9797 13.4551 21.7216C14.3955 22.4635 15.5332 22.9126 16.7268 23.013C20.7008 23.4501 22.0266 20.9971 21.9797 19.1402C21.9799 18.6702 21.8645 18.2075 21.6437 17.7926C20.7405 16.2283 18.1935 15.9863 17.7925 18.1539C17.5396 19.5665 18.3561 19.7001 18.8438 19.3244C18.9903 19.2212 19.098 19.0719 19.1497 18.9004C19.2014 18.7288 19.1942 18.5449 19.1292 18.3779C19.5772 18.3779 19.8987 19.1004 19.812 19.776C19.8001 19.8689 19.7807 19.9607 19.7542 20.0506C19.5628 20.6936 18.9703 21.2428 17.7492 21.1344C17.2246 21.0918 16.7248 20.8932 16.3141 20.5642C15.9033 20.2352 15.6004 19.7909 15.4443 19.2883C14.6206 16.9798 16.0729 13.3309 20.0577 13.3381C25.2564 13.3454 28.6487 20.2601 26.0223 26.0116Z" fill="white"></path><path d="M15.083 15.6611C15.32 15.1547 15.6371 14.6899 16.0223 14.2847C16.5472 13.7505 17.1771 13.3308 17.8723 13.0522C18.5674 12.7737 19.3128 12.6422 20.0613 12.6662C21.0436 12.6842 22.0105 12.9128 22.8968 13.3367C23.783 13.7605 24.568 14.3696 25.1986 15.1228C25.7152 14.1149 26.0332 12.9082 25.6322 11.7016C24.4761 8.1792 21.604 6.67631 21.9472 3.42125C17.4313 5.95015 19.8699 8.91258 19.9168 10.3396C19.925 10.6739 19.8382 11.0037 19.6667 11.2907C19.4952 11.5778 19.2458 11.8103 18.9476 11.9616C18.6493 12.1128 18.3144 12.1764 17.9814 12.1451C17.6485 12.1138 17.3312 11.9888 17.0664 11.7847C16.1307 11.1055 16.3186 8.89452 16.7738 7.8107C16.7738 7.8107 14.4616 9.40391 14.5339 13.1106C14.5374 13.9897 14.7244 14.8584 15.083 15.6611Z" fill="white"></path><path d="M5.41863 12.3158C4.93453 10.6539 6.35071 9.2341 6.35071 9.2341L6.07976 8.82587C3.82181 9.90968 3.85071 11.7955 4.00244 12.6553C0.205479 14.1871 1.43742 20.4986 0.270508 21.5354C2.43814 21.3981 2.71993 19.0065 2.71993 19.0065C3.5822 19.6182 4.20233 20.5132 4.4721 21.5354C6.27846 20.4841 5.91718 18.0419 5.91718 18.0419C5.91718 18.0419 6.97571 19.9892 9.14695 20.2095C8.91831 19.3109 8.83056 18.3822 8.88684 17.4566C8.88684 17.4566 11.0545 19.1366 12.6115 17.4566C9.83698 17.453 10.2091 11.7522 5.41863 12.3158Z" fill="white"></path><g style="mix-blend-mode:soft-light"><path d="M5.2666 13.3382C5.2666 13.3382 7.32224 11.9689 8.99493 14.5845C8.05201 14.1546 5.65316 14.2847 5.65316 14.2847L5.2666 13.3382Z" fill="white"></path></g><g style="mix-blend-mode:multiply" opacity="0.3"><path d="M26.0223 26.0116C25.1638 27.8484 23.8133 29.4115 22.1206 30.5275C16.8894 34.1041 8.00211 32.9371 4.01367 25.5564C7.72032 28.3273 17.3121 33.9595 26.0223 26.0116Z" fill="white"></path></g><g style="mix-blend-mode:multiply" opacity="0.3"><path d="M21.9792 19.1474C21.9794 18.6775 21.864 18.2147 21.6432 17.7999C20.74 16.2356 18.193 15.9935 17.792 18.1611C17.6656 17.4386 17.7162 16.3801 18.7891 15.8237C20.7545 14.776 22.8932 16.9039 21.9792 19.1474Z" fill="white"></path></g><g style="mix-blend-mode:multiply" opacity="0.3"><path d="M19.7507 20.047C19.5592 20.69 18.9667 21.2392 17.7456 21.1308C17.2222 21.0877 16.7235 20.8894 16.3135 20.5611C15.9035 20.2329 15.6009 19.7897 15.4443 19.2883C16.5282 19.9386 18.5079 20.8923 19.7507 20.047Z" fill="white"></path></g><g style="mix-blend-mode:soft-light"><path d="M10.7152 20.5672L10.6249 21.1091C10.6061 21.2263 10.5511 21.3347 10.4675 21.4189C10.3839 21.5032 10.2759 21.5591 10.1589 21.5788L9.49414 21.6871C9.49414 21.6871 12.5541 25.4155 18.3345 23.6633C12.9804 23.8656 10.7152 20.5672 10.7152 20.5672Z" fill="white"></path></g></g><defs><clipPath id="clip0_15998_596"><rect width="87.0629" height="35" fill="white" transform="translate(0.270508)"></rect></clipPath></defs></svg>