<svg width="80" height="78" viewBox="0 0 80 78" fill="none" xmlns="http://www.w3.org/2000/svg">
<path d="M39.9688 20.5C44.8012 20.5 48.7188 16.5825 48.7188 11.75C48.7188 6.91751 44.8012 3 39.9688 3C35.1363 3 31.2188 6.91751 31.2188 11.75C31.2188 16.5825 35.1363 20.5 39.9688 20.5Z" stroke="#4F4F4F" stroke-width="2" stroke-linecap="round" stroke-linejoin="round"/>
<path d="M48.0938 40.0937L58.9688 48.5312C59.6877 49.1297 60.6044 49.4378 61.5388 49.3952C62.4733 49.3525 63.358 48.9622 64.0195 48.3007C64.6809 47.6393 65.0713 46.7545 65.1139 45.8201C65.1566 44.8856 64.8484 43.969 64.25 43.25L51.875 27.3438C51.2983 26.7612 50.6121 26.2984 49.856 25.982C49.0998 25.6655 48.2885 25.5018 47.4688 25.5H32.4688C30.805 25.5089 29.2114 26.171 28.0313 27.3438L15.6563 43.25C15.0119 43.9652 14.6673 44.9009 14.6938 45.8632C14.7203 46.8255 15.1159 47.7407 15.7986 48.4194C16.4813 49.0981 17.3989 49.4883 18.3613 49.5091C19.3238 49.5299 20.2573 49.1798 20.9688 48.5312L31.8438 40.0937L23.1563 67.4688C22.947 67.9161 22.8278 68.4002 22.8056 68.8936C22.7835 69.3869 22.8587 69.8798 23.027 70.3441C23.1953 70.8084 23.4534 71.235 23.7866 71.5996C24.1197 71.9641 24.5214 72.2595 24.9688 72.4688C25.4161 72.678 25.9002 72.7972 26.3936 72.8194C26.8869 72.8415 27.3798 72.7663 27.8441 72.598C28.3084 72.4297 28.735 72.1716 29.0996 71.8384C29.4641 71.5053 29.7595 71.1036 29.9688 70.6562L39.9688 54.9063L49.9688 70.6562C50.1641 71.1231 50.4519 71.5456 50.8148 71.8982C51.1778 72.2509 51.6084 72.5265 52.0806 72.7083C52.5529 72.8902 53.0571 72.9745 53.5628 72.9564C54.0685 72.9382 54.5654 72.8178 55.0234 72.6026C55.4814 72.3873 55.891 72.0815 56.2277 71.7037C56.5644 71.3259 56.8212 70.8839 56.9825 70.4042C57.1438 69.9245 57.2064 69.4172 57.1664 68.9127C57.1265 68.4082 56.9848 67.917 56.75 67.4688L48.0938 40.0937Z" stroke="#4F4F4F" stroke-width="2" stroke-linecap="round" stroke-linejoin="round"/>
</svg>
